<svg width="16" height="16" viewBox="0 0 16 16" fill="none" xmlns="http://www.w3.org/2000/svg">
<path fill-rule="evenodd" clip-rule="evenodd" d="M5.38666 1.76001C5.38667 2.17382 5.05055 2.50928 4.63594 2.50928L3.5632 2.50928L5.55738 4.49957C5.85056 4.79217 5.85056 5.26658 5.55738 5.55919C5.2642 5.8518 4.78887 5.8518 4.49569 5.55919L2.50146 3.56886V4.64521C2.50146 5.05902 2.16535 5.39448 1.75073 5.39448C1.33611 5.39448 1 5.05902 1 4.64521V1.76001C1 1.3462 1.33611 1.01075 1.75073 1.01074L4.63593 1.01074C5.05055 1.01074 5.38666 1.3462 5.38666 1.76001ZM10.4447 11.508L12.4384 13.4978H11.3681C10.9535 13.4978 10.6174 13.8333 10.6174 14.2471C10.6174 14.6609 10.9535 14.9964 11.3681 14.9964L14.2533 14.9964C14.6679 14.9964 15.004 14.6609 15.004 14.2471V11.3619C15.004 10.9481 14.6679 10.6126 14.2533 10.6126C13.8387 10.6126 13.5026 10.9481 13.5026 11.3619V12.4407L11.5064 10.4484C11.2132 10.1558 10.7379 10.1558 10.4447 10.4484C10.1515 10.741 10.1515 11.2154 10.4447 11.508ZM11.3661 2.50928C10.9515 2.50928 10.6154 2.17382 10.6154 1.76001C10.6154 1.3462 10.9515 1.01074 11.3661 1.01074L14.2513 1.01074C14.6659 1.01074 15.0021 1.3462 15.0021 1.76001V4.64521C15.0021 5.05902 14.6659 5.39448 14.2513 5.39448C13.8367 5.39448 13.5006 5.05902 13.5006 4.64521V3.5669L11.5044 5.55919C11.2112 5.8518 10.7359 5.8518 10.4427 5.55919C10.1495 5.26658 10.1495 4.79217 10.4427 4.49957L12.4369 2.50928L11.3661 2.50928ZM5.55738 11.5081L3.56369 13.4978L4.63594 13.4978C5.05055 13.4978 5.38667 13.8333 5.38666 14.2471C5.38666 14.6609 5.05055 14.9964 4.63593 14.9964L1.75073 14.9964C1.33611 14.9964 1 14.6609 1 14.2471V11.3619C1 10.9481 1.33611 10.6126 1.75073 10.6126C2.16535 10.6126 2.50146 10.9481 2.50146 11.3619L2.50146 12.4388L4.49569 10.4484C4.78887 10.1558 5.2642 10.1558 5.55738 10.4484C5.85056 10.741 5.85056 11.2154 5.55738 11.5081Z" fill="#28282D"/>
</svg>
